<svg width="31" height="21" viewBox="0 0 31 21" fill="none" xmlns="http://www.w3.org/2000/svg">
<path d="M30.8125 1.65625V10.4062C30.8125 10.6963 30.6973 10.9745 30.4921 11.1796C30.287 11.3848 30.0088 11.5 29.7187 11.5C29.4287 11.5 29.1505 11.3848 28.9454 11.1796C28.7402 10.9745 28.625 10.6963 28.625 10.4062V4.29629L17.3676 15.5551C17.266 15.6568 17.1454 15.7374 17.0126 15.7925C16.8798 15.8475 16.7375 15.8759 16.5937 15.8759C16.45 15.8759 16.3077 15.8475 16.1749 15.7925C16.0421 15.7374 15.9215 15.6568 15.8199 15.5551L11.125 10.8588L2.05508 19.9301C1.84984 20.1353 1.57149 20.2506 1.28125 20.2506C0.991006 20.2506 0.712652 20.1353 0.50742 19.9301C0.302188 19.7248 0.18689 19.4465 0.18689 19.1562C0.18689 18.866 0.302188 18.5877 0.50742 18.3824L10.3512 8.53867C10.4527 8.43698 10.5734 8.35631 10.7062 8.30126C10.8389 8.24622 10.9813 8.21789 11.125 8.21789C11.2687 8.21789 11.4111 8.24622 11.5438 8.30126C11.6766 8.35631 11.7972 8.43698 11.8988 8.53867L16.5937 13.235L27.0787 2.75H20.9687C20.6787 2.75 20.4005 2.63477 20.1954 2.42965C19.9902 2.22453 19.875 1.94633 19.875 1.65625C19.875 1.36617 19.9902 1.08797 20.1954 0.882852C20.4005 0.677734 20.6787 0.5625 20.9687 0.5625H29.7187C30.0088 0.5625 30.287 0.677734 30.4921 0.882852C30.6973 1.08797 30.8125 1.36617 30.8125 1.65625Z" fill="#F0FDFA"/>
</svg>
