<svg width="12" height="8" viewBox="0 0 12 8" fill="none" xmlns="http://www.w3.org/2000/svg">
<path d="M9.73031 0.9925C8.75859 0.506875 7.46859 0.25 6 0.25C4.53141 0.25 3.24141 0.506875 2.26969 0.9925C1.29797 1.47812 0.75 2.16156 0.75 2.875V5.125C0.75 5.83844 1.30406 6.52422 2.26969 7.0075C3.23531 7.49078 4.53141 7.75 6 7.75C7.46859 7.75 8.75859 7.49313 9.73031 7.0075C10.702 6.52188 11.25 5.83844 11.25 5.125V2.875C11.25 2.16156 10.6959 1.47578 9.73031 0.9925ZM5.625 5.4925V6.9925C4.73438 6.96344 3.98438 6.83219 3.375 6.64141V5.17422C4.10959 5.36993 4.86496 5.4771 5.625 5.49344V5.4925ZM6.375 5.4925C7.13504 5.47616 7.89041 5.369 8.625 5.17328V6.64094C8.01562 6.83172 7.26562 6.96297 6.375 6.99203V5.4925ZM1.5 5.125V4.25922C1.73599 4.45511 1.99436 4.62237 2.26969 4.7575C2.38359 4.81422 2.50406 4.86766 2.625 4.91828V6.34375C1.88297 5.97625 1.5 5.51359 1.5 5.125ZM9.375 6.34375V4.91828C9.49734 4.86766 9.61641 4.81422 9.73031 4.7575C10.0056 4.62237 10.264 4.45511 10.5 4.25922V5.125C10.5 5.51359 10.117 5.97625 9.375 6.34375Z" fill="#667085"/>
</svg>
