<svg width="17" height="17" viewBox="0 0 17 17" fill="none" xmlns="http://www.w3.org/2000/svg">
<path d="M8.3125 0.875C6.24119 0.877275 4.25538 1.70111 2.79074 3.16574C1.32611 4.63038 0.502275 6.61619 0.5 8.6875V15.2758C0.500413 15.6003 0.629526 15.9115 0.859022 16.141C1.08852 16.3705 1.39966 16.4996 1.72422 16.5H8.3125C10.3845 16.5 12.3716 15.6769 13.8368 14.2118C15.3019 12.7466 16.125 10.7595 16.125 8.6875C16.125 6.6155 15.3019 4.62836 13.8368 3.16323C12.3716 1.6981 10.3845 0.875 8.3125 0.875ZM10.5 10.875H5.5C5.33424 10.875 5.17527 10.8092 5.05806 10.6919C4.94085 10.5747 4.875 10.4158 4.875 10.25C4.875 10.0842 4.94085 9.92527 5.05806 9.80806C5.17527 9.69085 5.33424 9.625 5.5 9.625H10.5C10.6658 9.625 10.8247 9.69085 10.9419 9.80806C11.0592 9.92527 11.125 10.0842 11.125 10.25C11.125 10.4158 11.0592 10.5747 10.9419 10.6919C10.8247 10.8092 10.6658 10.875 10.5 10.875ZM10.5 8.375H5.5C5.33424 8.375 5.17527 8.30915 5.05806 8.19194C4.94085 8.07473 4.875 7.91576 4.875 7.75C4.875 7.58424 4.94085 7.42527 5.05806 7.30806C5.17527 7.19085 5.33424 7.125 5.5 7.125H10.5C10.6658 7.125 10.8247 7.19085 10.9419 7.30806C11.0592 7.42527 11.125 7.58424 11.125 7.75C11.125 7.91576 11.0592 8.07473 10.9419 8.19194C10.8247 8.30915 10.6658 8.375 10.5 8.375Z" fill="#8A94A6"/>
</svg>
