<svg width="12" height="10" viewBox="0 0 12 10" fill="none" xmlns="http://www.w3.org/2000/svg">
<path d="M10.5938 3.12875C10.575 3.08187 10.5553 3.035 10.5352 2.98812C10.2327 2.29064 9.74327 1.69039 9.12094 1.25375H10.125C10.2245 1.25375 10.3198 1.21424 10.3902 1.14391C10.4605 1.07359 10.5 0.978206 10.5 0.87875C10.5 0.779294 10.4605 0.683911 10.3902 0.613585C10.3198 0.543259 10.2245 0.50375 10.125 0.50375H5.25C4.21317 0.505066 3.21475 0.89626 2.45301 1.59965C1.69126 2.30304 1.2219 3.26718 1.13813 4.30062C0.814201 4.38115 0.526387 4.56741 0.320244 4.82993C0.114102 5.09245 0.00140696 5.41622 0 5.75C0 5.84946 0.0395088 5.94484 0.109835 6.01517C0.180161 6.08549 0.275544 6.125 0.375 6.125C0.474456 6.125 0.569839 6.08549 0.640165 6.01517C0.710491 5.94484 0.75 5.84946 0.75 5.75C0.750087 5.61325 0.78756 5.47913 0.858364 5.36214C0.929169 5.24516 1.03061 5.14975 1.15172 5.08625C1.24506 5.92759 1.59588 6.71959 2.15625 7.35406L2.745 9.00219C2.79705 9.14797 2.89293 9.27407 3.01949 9.3632C3.14605 9.45233 3.29708 9.50011 3.45187 9.5H4.04813C4.20284 9.50002 4.35377 9.45219 4.48023 9.36306C4.6067 9.27394 4.70251 9.14789 4.75453 9.00219L4.84453 8.75H7.53047L7.62047 9.00219C7.67249 9.14789 7.7683 9.27394 7.89477 9.36306C8.02123 9.45219 8.17216 9.50002 8.32687 9.5H8.92313C9.07784 9.50002 9.22877 9.45219 9.35523 9.36306C9.4817 9.27394 9.57751 9.14789 9.62953 9.00219L10.3894 6.875H10.5C10.7984 6.875 11.0845 6.75647 11.2955 6.5455C11.5065 6.33452 11.625 6.04837 11.625 5.75V4.25C11.625 3.96783 11.519 3.69595 11.328 3.48827C11.137 3.28058 10.8749 3.15226 10.5938 3.12875ZM7.125 2.375H5.25C5.15054 2.375 5.05516 2.33549 4.98484 2.26516C4.91451 2.19484 4.875 2.09946 4.875 2C4.875 1.90054 4.91451 1.80516 4.98484 1.73483C5.05516 1.66451 5.15054 1.625 5.25 1.625H7.125C7.22446 1.625 7.31984 1.66451 7.39017 1.73483C7.46049 1.80516 7.5 1.90054 7.5 2C7.5 2.09946 7.46049 2.19484 7.39017 2.26516C7.31984 2.33549 7.22446 2.375 7.125 2.375ZM8.4375 5C8.32625 5 8.21749 4.96701 8.12499 4.9052C8.03249 4.84339 7.96039 4.75554 7.91782 4.65276C7.87524 4.54998 7.8641 4.43688 7.88581 4.32776C7.90751 4.21865 7.96109 4.11842 8.03975 4.03975C8.11842 3.96109 8.21865 3.90751 8.32776 3.88581C8.43688 3.8641 8.54998 3.87524 8.65276 3.91782C8.75554 3.96039 8.84339 4.03249 8.9052 4.12499C8.96701 4.21749 9 4.32625 9 4.4375C9 4.58668 8.94074 4.72976 8.83525 4.83525C8.72976 4.94074 8.58668 5 8.4375 5Z" fill="#667085"/>
</svg>
