<svg width="12" height="10" viewBox="0 0 12 10" fill="none" xmlns="http://www.w3.org/2000/svg">
<path d="M11.4061 3.2614L5.38686 9.28015C5.31722 9.34982 5.23453 9.40508 5.14353 9.44278C5.05252 9.48048 4.95498 9.49988 4.85647 9.49988C4.75797 9.49988 4.66043 9.48048 4.56942 9.44278C4.47842 9.40508 4.39573 9.34982 4.32608 9.28015L0.968896 5.90515C0.828493 5.76453 0.749634 5.57394 0.749634 5.37523C0.749634 5.17652 0.828493 4.98593 0.968896 4.84531L2.0939 3.72031C2.23407 3.5801 2.42405 3.5011 2.6223 3.50057C2.82055 3.50005 3.01095 3.57804 3.15186 3.7175L4.86936 5.37078L4.87452 5.37594L9.22124 1.09297C9.3618 0.952992 9.55209 0.874405 9.75046 0.874405C9.94883 0.874405 10.1391 0.952992 10.2797 1.09297L11.4047 2.19734C11.4749 2.26695 11.5307 2.34977 11.5688 2.44103C11.6069 2.53229 11.6266 2.63018 11.6268 2.72908C11.6269 2.82798 11.6075 2.92592 11.5696 3.01728C11.5317 3.10864 11.4761 3.19161 11.4061 3.2614Z" fill="#667085"/>
</svg>
