<svg width="34" height="34" viewBox="0 0 34 34" fill="none" xmlns="http://www.w3.org/2000/svg">
<g filter="url(#filter0_i_3004_341)">
<rect x="0.399994" width="33.2" height="33.2" rx="5.2" fill="white"/>
<rect x="0.399994" width="33.2" height="33.2" rx="5.2" fill="url(#paint0_linear_3004_341)"/>
<rect x="0.399994" width="33.2" height="33.2" rx="5.2" fill="url(#paint1_linear_3004_341)"/>
<rect x="0.599994" y="0.2" width="32.8" height="32.8" rx="5" stroke="url(#paint2_linear_3004_341)" stroke-width="0.4"/>
<path d="M15.5704 27.7476C14.2111 28.0352 12.4927 26.7086 13.6512 25.9416C14.7367 25.2229 17.0353 25.3271 17.9669 24.4358C22.3336 20.3607 11.1129 24.164 19.9798 17.7588C20.5901 17.3179 21.2167 16.8794 21.7036 16.3051C24.8439 12.6011 14.6722 18.1371 19.4482 12.6175C27.4931 -0.0888319 14.6636 10.2252 13.0905 18.0306C10.3416 42.3623 5.65556 12.6862 18.9836 5.74535C21.3578 4.62523 24.2636 3.98524 24.0283 7.8813C23.783 10.9419 21.8636 11.3452 23.7514 13.881C25.0636 16.1452 21.8185 18.8365 20.5178 20.7054C23.3704 24.263 19.306 26.957 15.5704 27.7476Z" fill="white"/>
</g>
<defs>
<filter id="filter0_i_3004_341" x="0.399994" y="-3.6" width="33.2" height="36.8" filterUnits="userSpaceOnUse" color-interpolation-filters="sRGB">
<feFlood flood-opacity="0" result="BackgroundImageFix"/>
<feBlend mode="normal" in="SourceGraphic" in2="BackgroundImageFix" result="shape"/>
<feColorMatrix in="SourceAlpha" type="matrix" values="0 0 0 0 0 0 0 0 0 0 0 0 0 0 0 0 0 0 127 0" result="hardAlpha"/>
<feOffset dy="-3.6"/>
<feGaussianBlur stdDeviation="4.14"/>
<feComposite in2="hardAlpha" operator="arithmetic" k2="-1" k3="1"/>
<feColorMatrix type="matrix" values="0 0 0 0 0.278576 0 0 0 0 0.591667 0 0 0 0 0.56213 0 0 0 1 0"/>
<feBlend mode="normal" in2="shape" result="effect1_innerShadow_3004_341"/>
</filter>
<linearGradient id="paint0_linear_3004_341" x1="32.6" y1="0.600002" x2="1.6" y2="34.2" gradientUnits="userSpaceOnUse">
<stop stop-color="white" stop-opacity="0.81"/>
<stop offset="1" stop-color="white"/>
</linearGradient>
<linearGradient id="paint1_linear_3004_341" x1="32.6" y1="0.600002" x2="1.6" y2="34.2" gradientUnits="userSpaceOnUse">
<stop stop-color="#3FDCCD" stop-opacity="0.81"/>
<stop offset="1" stop-color="#09544D"/>
</linearGradient>
<linearGradient id="paint2_linear_3004_341" x1="17" y1="0" x2="17" y2="33.2" gradientUnits="userSpaceOnUse">
<stop stop-color="#33F7E4"/>
<stop offset="1" stop-color="#051D1B" stop-opacity="0"/>
</linearGradient>
</defs>
</svg>
