<svg width="18" height="18" viewBox="0 0 18 18" fill="none" xmlns="http://www.w3.org/2000/svg">
<path d="M17.0086 8.62501L9.25 0.866412C9.13435 0.749834 8.99668 0.657407 8.84499 0.594506C8.6933 0.531604 8.53062 0.499482 8.36641 0.500006H1.125C0.95924 0.500006 0.800269 0.565854 0.683059 0.683065C0.565849 0.800275 0.500001 0.959246 0.500001 1.12501V8.36641C0.499476 8.53063 0.531598 8.6933 0.5945 8.84499C0.657402 8.99668 0.749828 9.13435 0.866407 9.25001L8.625 17.0086C8.74108 17.1247 8.87889 17.2168 9.03057 17.2796C9.18224 17.3425 9.34481 17.3748 9.50899 17.3748C9.67316 17.3748 9.83573 17.3425 9.98741 17.2796C10.1391 17.2168 10.2769 17.1247 10.393 17.0086L17.0086 10.393C17.1247 10.2769 17.2168 10.1391 17.2796 9.98741C17.3425 9.83574 17.3748 9.67317 17.3748 9.50899C17.3748 9.34481 17.3425 9.18225 17.2796 9.03057C17.2168 8.87889 17.1247 8.74108 17.0086 8.62501ZM4.5625 5.50001C4.37708 5.50001 4.19582 5.44502 4.04165 5.34201C3.88748 5.239 3.76732 5.09258 3.69636 4.92127C3.62541 4.74997 3.60684 4.56147 3.64301 4.37961C3.67919 4.19775 3.76848 4.03071 3.89959 3.89959C4.0307 3.76848 4.19775 3.67919 4.3796 3.64302C4.56146 3.60685 4.74996 3.62541 4.92127 3.69637C5.09257 3.76733 5.23899 3.88749 5.342 4.04166C5.44502 4.19583 5.5 4.37709 5.5 4.56251C5.5 4.81115 5.40123 5.0496 5.22541 5.22542C5.0496 5.40123 4.81114 5.50001 4.5625 5.50001Z" fill="#8A94A6"/>
</svg>
