<svg width="12" height="10" viewBox="0 0 12 10" fill="none" xmlns="http://www.w3.org/2000/svg">
<path d="M8.62501 3.19859V2.9375C8.62501 1.76188 6.85173 0.875 4.50001 0.875C2.14829 0.875 0.375008 1.76188 0.375008 2.9375V4.8125C0.375008 5.79172 1.60548 6.56984 3.37501 6.80281V7.0625C3.37501 8.23812 5.14829 9.125 7.50001 9.125C9.85173 9.125 11.625 8.23812 11.625 7.0625V5.1875C11.625 4.21719 10.4334 3.43812 8.62501 3.19859ZM2.62501 5.88453C1.70673 5.62812 1.12501 5.20578 1.12501 4.8125V4.15297C1.50751 4.42391 2.01985 4.64234 2.62501 4.78906V5.88453ZM6.37501 4.78906C6.98016 4.64234 7.49251 4.42391 7.87501 4.15297V4.8125C7.87501 5.20578 7.29329 5.62812 6.37501 5.88453V4.78906ZM5.62501 8.13453C4.70673 7.87812 4.12501 7.45578 4.12501 7.0625V6.86703C4.24829 6.87172 4.37298 6.875 4.50001 6.875C4.68188 6.875 4.85954 6.86891 5.03391 6.85859C5.22763 6.92794 5.42495 6.98678 5.62501 7.03484V8.13453ZM5.62501 6.04297C5.25254 6.09799 4.87652 6.12541 4.50001 6.125C4.1235 6.12541 3.74747 6.09799 3.37501 6.04297V4.92781C3.74803 4.97642 4.12383 5.00053 4.50001 5C4.87618 5.00053 5.25199 4.97642 5.62501 4.92781V6.04297ZM8.62501 8.29297C7.879 8.40234 7.12102 8.40234 6.37501 8.29297V7.175C6.74791 7.22513 7.12375 7.25018 7.50001 7.25C7.87618 7.25053 8.25199 7.22642 8.62501 7.17781V8.29297ZM10.875 7.0625C10.875 7.45578 10.2933 7.87812 9.37501 8.13453V7.03906C9.98016 6.89234 10.4925 6.67391 10.875 6.40297V7.0625Z" fill="#667085"/>
</svg>
